<?xml version="1.0" encoding="UTF-8"?>
<svg id="Layer_2" data-name="Layer 2" xmlns="http://www.w3.org/2000/svg" xmlns:xlink="http://www.w3.org/1999/xlink" viewBox="0 0 48.77 39.31">
  <defs>
    <style>
      .cls-1 {
        fill: #ff9000;
      }

      .cls-2 {
        fill: #b8e353;
      }

      .cls-3 {
        filter: url(#drop-shadow-1);
      }

      .cls-4 {
        fill: #ffea94;
      }

      .cls-5 {
        fill: #5c77a5;
      }

      .cls-6 {
        fill: #ffd92e;
      }

      .cls-7 {
        fill: #73e6fd;
      }

      .cls-8 {
        fill: #353638;
      }
    </style>
    <filter id="drop-shadow-1" filterUnits="userSpaceOnUse">
      <feOffset dx="-3.08" dy="3.08"/>
      <feGaussianBlur result="blur" stdDeviation="7.7"/>
      <feFlood flood-color="#000" flood-opacity=".35"/>
      <feComposite in2="blur" operator="in"/>
      <feComposite in="SourceGraphic"/>
    </filter>
  </defs>
  <g id="toolbox">
    <g id="_5153_-_Abacus" data-name="5153 - Abacus" class="cls-3">
      <g>
        <g>
          <path class="cls-7" d="m33.89,5.75c1.42,0,2.57,1.15,2.57,2.57s-1.15,2.57-2.57,2.57-2.57-1.16-2.57-2.57c0-1.42,1.16-2.57,2.57-2.57Z"/>
          <path class="cls-7" d="m21.97,5.75c1.42,0,2.57,1.15,2.57,2.57s-1.15,2.57-2.57,2.57-2.57-1.16-2.57-2.57c0-1.42,1.16-2.57,2.57-2.57Z"/>
          <path class="cls-7" d="m14.88,5.75c1.42,0,2.57,1.15,2.57,2.57s-1.16,2.57-2.57,2.57-2.57-1.16-2.57-2.57,1.15-2.57,2.57-2.57Z"/>
          <path class="cls-1" d="m30.54,16.83c0,.07,0,.14,0,.21-.11,1.32-1.22,2.35-2.56,2.35s-2.45-1.04-2.56-2.35c0-.07,0-.14,0-.21,0-1.42,1.15-2.57,2.57-2.57s2.57,1.15,2.57,2.57Z"/>
          <path class="cls-1" d="m20.42,16.83c0,.07,0,.14,0,.21-.11,1.32-1.22,2.35-2.56,2.35s-2.45-1.04-2.56-2.35c0-.07,0-.14,0-.21,0-1.42,1.15-2.57,2.57-2.57s2.57,1.15,2.57,2.57Z"/>
          <path class="cls-5" d="m33.89,23.2c1.42,0,2.57,1.15,2.57,2.57s-1.15,2.57-2.57,2.57-2.57-1.16-2.57-2.57,1.16-2.57,2.57-2.57Z"/>
          <path class="cls-2" d="m21.97,23.2c1.42,0,2.57,1.15,2.57,2.57s-1.15,2.57-2.57,2.57-2.57-1.16-2.57-2.57,1.16-2.57,2.57-2.57Z"/>
          <path class="cls-2" d="m14.88,23.2c1.42,0,2.57,1.15,2.57,2.57s-1.16,2.57-2.57,2.57-2.57-1.16-2.57-2.57,1.15-2.57,2.57-2.57Z"/>
          <polygon class="cls-4" points="43.95 22.63 43.95 28.52 39.71 28.52 39.71 25.77 39.71 17.04 39.71 8.32 39.71 5.57 43.95 5.57 43.95 11.45 43.95 22.63"/>
          <rect class="cls-6" x="39.71" y=".55" width="4.24" height="5.02"/>
          <rect class="cls-6" x="39.71" y="28.52" width="4.24" height="5.02"/>
          <rect class="cls-6" x="4.82" y="28.52" width="4.24" height="5.02"/>
          <rect class="cls-6" x="4.82" y=".55" width="4.24" height="5.02"/>
          <polygon class="cls-4" points="9.06 25.77 9.06 28.52 4.82 28.52 4.82 22.63 4.82 11.45 4.82 5.57 9.06 5.57 9.06 8.32 9.06 17.04 9.06 25.77"/>
          <rect class="cls-5" x="13.72" y="33.53" width="21.33" height="2.61"/>
          <polygon class="cls-5" points="48.22 33.53 48.22 38.75 .55 38.75 .55 33.53 4.82 33.53 9.06 33.53 13.72 33.53 13.72 36.14 35.05 36.14 35.05 33.53 39.71 33.53 43.95 33.53 48.22 33.53"/>
        </g>
        <g>
          <path class="cls-8" d="m48.22,39.31H.55c-.3,0-.55-.25-.55-.55v-5.22c0-.31.25-.55.55-.55h47.66c.31,0,.55.25.55.55v5.22c0,.3-.25.55-.55.55Zm-47.11-1.1h46.56v-4.11H1.1v4.11Z"/>
          <path class="cls-8" d="m9.06,34.09c-.3,0-.55-.25-.55-.55V1.1h-3.14v32.43c0,.31-.25.55-.55.55s-.55-.25-.55-.55V.55c0-.3.25-.55.55-.55h4.24c.3,0,.55.25.55.55v32.98c0,.3-.25.55-.55.55Z"/>
          <path class="cls-8" d="m43.95,34.09c-.31,0-.55-.25-.55-.55V1.1h-3.14v32.43c0,.31-.25.55-.55.55s-.55-.25-.55-.55V.55c0-.3.25-.55.55-.55h4.24c.31,0,.55.25.55.55v32.98c0,.3-.25.55-.55.55Z"/>
          <path class="cls-8" d="m12.31,8.87h-3.25c-.3,0-.55-.25-.55-.55s.25-.55.55-.55h3.25c.3,0,.55.25.55.55s-.25.55-.55.55Z"/>
          <path class="cls-8" d="m19.4,8.87h-1.95c-.3,0-.55-.25-.55-.55s.25-.55.55-.55h1.95c.3,0,.55.25.55.55s-.25.55-.55.55Z"/>
          <path class="cls-8" d="m31.32,8.87h-6.78c-.3,0-.55-.25-.55-.55s.25-.55.55-.55h6.78c.31,0,.55.25.55.55s-.25.55-.55.55Z"/>
          <path class="cls-8" d="m39.71,8.87h-3.25c-.31,0-.55-.25-.55-.55s.25-.55.55-.55h3.25c.31,0,.55.25.55.55s-.25.55-.55.55Z"/>
          <path class="cls-8" d="m15.29,17.59h-6.23c-.3,0-.55-.25-.55-.55s.25-.55.55-.55h6.23c.3,0,.55.25.55.55,0,.3-.25.55-.55.55Z"/>
          <path class="cls-8" d="m25.41,17.59h-4.99c-.3,0-.55-.25-.55-.55s.25-.55.55-.55h4.99c.31,0,.55.25.55.55s-.25.55-.55.55Z"/>
          <path class="cls-8" d="m39.71,17.59h-9.18c-.31,0-.55-.25-.55-.55s.25-.55.55-.55h9.18c.31,0,.55.25.55.55s-.25.55-.55.55Z"/>
          <path class="cls-8" d="m12.31,26.32h-3.25c-.3,0-.55-.25-.55-.55s.25-.55.55-.55h3.25c.3,0,.55.25.55.55s-.25.55-.55.55Z"/>
          <path class="cls-8" d="m19.4,26.32h-1.95c-.3,0-.55-.25-.55-.55s.25-.55.55-.55h1.95c.3,0,.55.25.55.55s-.25.55-.55.55Z"/>
          <path class="cls-8" d="m31.32,26.32h-6.78c-.3,0-.55-.25-.55-.55s.25-.55.55-.55h6.78c.31,0,.55.25.55.55s-.25.55-.55.55Z"/>
          <path class="cls-8" d="m39.71,26.32h-3.25c-.31,0-.55-.25-.55-.55s.25-.55.55-.55h3.25c.31,0,.55.25.55.55s-.25.55-.55.55Z"/>
          <path class="cls-8" d="m14.88,11.44c-1.72,0-3.12-1.4-3.12-3.12s1.4-3.12,3.12-3.12,3.12,1.4,3.12,3.12-1.4,3.12-3.12,3.12Zm0-5.14c-1.11,0-2.02.91-2.02,2.02s.91,2.02,2.02,2.02,2.02-.91,2.02-2.02-.91-2.02-2.02-2.02Z"/>
          <path class="cls-8" d="m21.97,11.44c-1.72,0-3.12-1.4-3.12-3.12s1.4-3.12,3.12-3.12,3.12,1.4,3.12,3.12c0,1.72-1.4,3.12-3.12,3.12Zm0-5.14c-1.11,0-2.02.91-2.02,2.02s.91,2.02,2.02,2.02,2.02-.91,2.02-2.02-.91-2.02-2.02-2.02Z"/>
          <path class="cls-8" d="m33.89,11.44c-1.72,0-3.12-1.4-3.12-3.12s1.4-3.12,3.12-3.12,3.12,1.4,3.12,3.12-1.4,3.12-3.12,3.12Zm0-5.14c-1.11,0-2.02.91-2.02,2.02s.91,2.02,2.02,2.02,2.02-.91,2.02-2.02-.91-2.02-2.02-2.02Z"/>
          <path class="cls-8" d="m17.85,19.95c-1.61,0-2.98-1.26-3.11-2.86,0-.09-.01-.17-.01-.26,0-1.72,1.4-3.12,3.12-3.12s3.12,1.4,3.12,3.12c0,.09,0,.18-.01.27-.13,1.6-1.5,2.86-3.11,2.86Zm0-5.14c-1.11,0-2.02.91-2.02,2.02,0,.05,0,.11,0,.16h0c.09,1.04.97,1.86,2.01,1.86s1.93-.81,2.01-1.85c0-.06,0-.11,0-.17,0-1.11-.91-2.02-2.02-2.02Z"/>
          <path class="cls-8" d="m27.97,19.95c-1.61,0-2.98-1.26-3.11-2.86,0-.09-.01-.17-.01-.26,0-1.72,1.4-3.12,3.12-3.12s3.12,1.4,3.12,3.12c0,.09,0,.18-.01.27-.13,1.6-1.5,2.85-3.11,2.85Zm0-5.14c-1.11,0-2.02.91-2.02,2.02,0,.05,0,.11,0,.16h0c.09,1.04.97,1.86,2.01,1.86s1.92-.81,2.01-1.85c0-.06,0-.11,0-.17,0-1.11-.91-2.02-2.02-2.02Z"/>
          <path class="cls-8" d="m14.88,28.89c-1.72,0-3.12-1.4-3.12-3.12s1.4-3.12,3.12-3.12,3.12,1.4,3.12,3.12-1.4,3.12-3.12,3.12Zm0-5.14c-1.11,0-2.02.91-2.02,2.02s.91,2.02,2.02,2.02,2.02-.91,2.02-2.02-.91-2.02-2.02-2.02Z"/>
          <path class="cls-8" d="m21.97,28.89c-1.72,0-3.12-1.4-3.12-3.12s1.4-3.12,3.12-3.12,3.12,1.4,3.12,3.12c0,1.72-1.4,3.12-3.12,3.12Zm0-5.14c-1.11,0-2.02.91-2.02,2.02s.91,2.02,2.02,2.02,2.02-.91,2.02-2.02-.91-2.02-2.02-2.02Z"/>
          <path class="cls-8" d="m33.89,28.89c-1.72,0-3.12-1.4-3.12-3.12s1.4-3.12,3.12-3.12,3.12,1.4,3.12,3.12-1.4,3.12-3.12,3.12Zm0-5.14c-1.11,0-2.02.91-2.02,2.02s.91,2.02,2.02,2.02,2.02-.91,2.02-2.02-.91-2.02-2.02-2.02Z"/>
          <path class="cls-8" d="m9.06,29.07h-4.24c-.3,0-.55-.25-.55-.55s.25-.55.55-.55h4.24c.3,0,.55.25.55.55s-.25.55-.55.55Z"/>
          <path class="cls-8" d="m9.06,6.12h-4.24c-.3,0-.55-.25-.55-.55s.25-.55.55-.55h4.24c.3,0,.55.25.55.55s-.25.55-.55.55Z"/>
          <path class="cls-8" d="m43.95,29.07h-4.24c-.31,0-.55-.25-.55-.55s.25-.55.55-.55h4.24c.31,0,.55.25.55.55s-.25.55-.55.55Z"/>
          <path class="cls-8" d="m43.95,6.12h-4.24c-.31,0-.55-.25-.55-.55s.25-.55.55-.55h4.24c.31,0,.55.25.55.55s-.25.55-.55.55Z"/>
        </g>
      </g>
    </g>
  </g>
</svg>