<?xml version="1.0" encoding="UTF-8"?>
<svg id="Layer_2" data-name="Layer 2" xmlns="http://www.w3.org/2000/svg" xmlns:xlink="http://www.w3.org/1999/xlink" viewBox="0 0 53.7 16.31">
  <defs>
    <style>
      .cls-1 {
        fill: #fff;
      }

      .cls-2 {
        filter: url(#drop-shadow-1);
      }

      .cls-3 {
        fill: #fdba16;
      }
    </style>
    <filter id="drop-shadow-1" filterUnits="userSpaceOnUse">
      <feOffset dx="-3.08" dy="3.08"/>
      <feGaussianBlur result="blur" stdDeviation="7.7"/>
      <feFlood flood-color="#000" flood-opacity=".35"/>
      <feComposite in2="blur" operator="in"/>
      <feComposite in="SourceGraphic"/>
    </filter>
  </defs>
  <g id="toolbox">
    <g class="cls-2">
      <path class="cls-1" d="m41.26,13.43v.1c0,1.5,1.68,2.39,2.92,1.54l7.79-5.33c1.08-.74,1.08-2.34,0-3.08l-7.79-5.33c-1.24-.85-2.92.04-2.92,1.54v.02c0,1.02-.82,1.86-1.85,1.87h-1.08s-24.04.01-24.04.01c-1.03,0-1.87-.84-1.87-1.87v-.12c0-1.5-1.68-2.39-2.92-1.54L1.72,6.57c-1.08.74-1.08,2.34,0,3.08l7.79,5.33c1.24.85,2.92-.04,2.92-1.54h0c0-1.03.84-1.87,1.87-1.87h25.08c1.04-.02,1.89.82,1.89,1.86Z"/>
      <path class="cls-3" d="m52.49,5.91l-7.79-5.34c-.85-.58-1.95-.65-2.87-.16-.91.48-1.48,1.42-1.48,2.47,0,.52-.42.95-.94.96h-1.07s-13.97.01-13.97.01h-10.07c-.53,0-.96-.43-.96-.96v-.12c0-1.03-.56-1.97-1.48-2.45-.91-.48-2.01-.42-2.86.16L1.21,5.82c-.75.52-1.21,1.37-1.21,2.29s.46,1.77,1.21,2.29l7.79,5.33c.85.58,1.95.65,2.86.17.92-.48,1.48-1.42,1.48-2.45,0-.53.43-.96.96-.96h25.09c.27-.02.5.08.68.27.19.18.28.42.28.68v.1c0,1.03.57,1.97,1.48,2.45.41.21.85.32,1.3.32.55,0,1.1-.17,1.57-.49l7.79-5.33c.75-.52,1.21-1.38,1.21-2.29s-.45-1.77-1.21-2.29Zm-1.03,3.08l-7.79,5.33c-.3.2-.67.23-.99.06-.32-.17-.51-.48-.51-.84v-.1c0-.74-.29-1.45-.82-1.97-.53-.52-1.21-.8-1.95-.8h-1.06s-13.97.01-13.97.01h-10.07c-1.53,0-2.78,1.24-2.78,2.78,0,.36-.19.68-.51.84-.32.17-.69.15-.99-.06l-7.8-5.33c-.26-.18-.41-.47-.41-.79s.15-.61.41-.79L10.03,1.98c.29-.2.66-.22.99-.06.32.17.51.49.51.85v.12c0,1.53,1.25,2.78,2.78,2.78h25.13c1.51-.03,2.74-1.28,2.74-2.81,0-.36.19-.68.51-.84.32-.17.69-.15.99.06l7.79,5.33c.27.18.42.47.42.79s-.15.61-.42.79Z"/>
    </g>
  </g>
</svg>