<?xml version="1.0" encoding="UTF-8"?>
<svg id="Layer_2" data-name="Layer 2" xmlns="http://www.w3.org/2000/svg" viewBox="0 0 276.34 94.23">
  <defs>
    <style>
      .cls-1 {
        fill: #92c83e;
      }

      .cls-2 {
        fill: #f6f7d1;
      }
    </style>
  </defs>
  <g id="formila">
    <g>
      <path class="cls-2" d="m2.37,36.55C5.59,11.45,12.7.19,37.73.19c127.62-.55,67.62.37,195.25-.19,25.03,0,37.57,11.52,40.36,36.68,2.56,23.06,1.62,13.57,2.07,18.46,2.34,25.18,3.33,36.28-36.16,38.72-131.48,1.06-67.42-.51-198.9-.51-35.88,0-40.83-7.82-40.32-33.31.04-2.01-.61-.57,2.33-23.49Z"/>
      <path class="cls-1" d="m234.48,2c26.06.01,35.35,16.61,37.04,32.56,1.37,12.99.76,7.15,2.01,19.05,1.56,14.77,2.44,21.17-3.02,27.52-5.67,6.61-14.39,7.43-29.8,8.47-.05,0-.1,0-.15,0-31.43.26-33.65.39-56.4.39-27.6,0-35.55-.18-58.72-.39-29.03-.26-32.24-.56-88.72-.56-13.61,0-23.78,2.69-29.84-3.69-6.04-6.35-5.03-11.27-5.03-21.17s1.19-15.41,2.83-28.78C7.97,8.49,14.72,2.2,34.03,2.2c29.41-.13,29.54-.2,52.65-.2,20.5,0,37,.05,52.95.1h.42c15.93.05,20.34.1,40.53.1,22.98,0,24.39-.07,53.89-.2h.01Zm5.96,82.66c13.96-.95,20.28-1.16,25.04-6.7,4.51-5.26,4.43-8.89,3.02-22.23-1.22-11.52-.6-7.79-2.01-21.17-1.51-14.3-9.9-27.6-32.01-27.61-29.5.13-30.91.2-53.9.2-20.2,0-24.61-.05-40.54-.1h-.42c-15.95-.05-32.44-.1-52.93-.1-23.1,0-23.23.07-52.64.2-5.61,0-10.33-.48-14.19,2.01-2.79,1.8-6.43,4.48-10.18,26.84-3.64,21.74-3.2,40.54,1.23,45.13,4.91,5.1,13.08,2.97,25.82,2.97,56.5,0,59.72.3,88.67.56,23.24.21,31.18.39,58.76.39,22.72,0,24.91-.13,56.29-.39Z"/>
    </g>
  </g>
</svg>