<?xml version="1.0" encoding="UTF-8"?>
<svg id="Layer_2" data-name="Layer 2" xmlns="http://www.w3.org/2000/svg" xmlns:xlink="http://www.w3.org/1999/xlink" viewBox="0 0 130.21 145.39">
  <defs>
    <style>
      .cls-1 {
        fill: #fcc249;
      }

      .cls-2 {
        filter: url(#drop-shadow-1);
      }

      .cls-3 {
        fill: #313131;
      }

      .cls-4 {
        fill: #fff7e6;
      }

      .cls-5 {
        fill: #ffd862;
      }

      .cls-6 {
        fill: #eb9f4c;
      }
    </style>
    <filter id="drop-shadow-1" filterUnits="userSpaceOnUse">
      <feOffset dx="-3.08" dy="3.08"/>
      <feGaussianBlur result="blur" stdDeviation="7.7"/>
      <feFlood flood-color="#000" flood-opacity=".25"/>
      <feComposite in2="blur" operator="in"/>
      <feComposite in="SourceGraphic"/>
    </filter>
  </defs>
  <g id="challenge">
    <g class="cls-2">
      <path class="cls-1" d="m1.74,34.62c0,14.48,11.92,30.76,33.34,30.76.5,0,.95,0,1.39,0h0c6.52,10.88,14.75,15.91,20.73,18.23-.51,6.72-3.04,10.38-8.18,15.31-.98.94-1.55,2.23-1.55,3.58v2.59h-2.05c-2.88,0-5.22,2.34-5.22,5.22v3.8h-2.47c-1.04,0-1.88.84-1.88,1.88v17.32h-3.63c-3.3,0-5.98,2.68-5.98,5.98v4.11s77.99,0,77.99,0v-4.11c0-3.3-2.68-5.98-5.98-5.98h-3.63v-17.32c0-1.04-.84-1.88-1.88-1.88h-2.47v-3.8c0-2.88-2.34-5.22-5.22-5.22h-2.05v-2.59c0-1.36-.57-2.64-1.55-3.58-5.14-4.93-7.67-8.59-8.18-15.31,5.98-2.32,14.21-7.35,20.73-18.23h0c.43,0,.89,0,1.39,0,21.42,0,33.34-16.28,33.34-30.76,0-4.86.3-9.78-4.61-14.58-3.56-3.49-8.88-4.47-13.86-4.51-1.56-.01-3.61-.03-5.68-.04,0-5.14,0-8.14,0-8.14,0,0-18.48-5.75-39.33-5.75-20.85,0-39.33,5.75-39.33,5.75v8.14c-2.08.01-4.12.03-5.68.04-4.98.04-10.3,1.02-13.86,4.51C1.44,24.84,1.74,29.77,1.74,34.62Zm95.78,23.81c3.82-8.86,6.54-20.61,6.97-36.19.67,0,1.29,0,1.83.01,3.74.03,7.73.76,10.4,3.29,3.68,3.5,3.46,7.08,3.47,10.61.01,10.02-8.06,21.21-22.68,22.27ZM13.72,25.55c2.68-2.54,6.67-3.26,10.4-3.29.54,0,1.17,0,1.83-.01.43,15.58,3.15,27.33,6.97,36.19-14.61-1.05-22.69-12.24-22.68-22.27,0-3.53-.22-7.12,3.47-10.61Z"/>
      <path class="cls-6" d="m10.23,27.84c-2.51,5.69-2.94,11.56-.85,17.42,2.19,6.16,6.8,12.3,12.21,16.8-.85-.67-9.73-5.17-10.5-5.91C5.92,48.84-.16,36.67,6.18,25.58c3.56-6.22,7.72-8.84,11.04-9.9,1-.1,2-.14,2.99-.15.66,0,1.41,0,2.21-.02-5.44,2.3-9.81,6.9-12.2,12.32Z"/>
      <path class="cls-5" d="m120.22,27.84c2.51,5.69,2.94,11.56.85,17.42-2.19,6.16-6.8,12.3-12.21,16.8.85-.67,9.73-5.17,10.5-5.91,5.18-7.31,11.25-19.48,4.91-30.57-3.56-6.22-7.72-8.84-11.04-9.9-1-.1-2-.14-2.99-.15-.66,0-1.41,0-2.21-.02,5.44,2.3,9.81,6.9,12.2,12.32Z"/>
      <path class="cls-6" d="m52.35,105.1c0-6.17,3.2-6.99,5.45-11.59,1.09-2.23,2.67-5.68,2.97-8.98l3,.38c0,10.29-7.46,12.8-7.46,20.19h-3.96Z"/>
      <path class="cls-6" d="m57.49,105.35c-1.87,2.27-3.5,4.24-3.5,8.78h-7.06c0-4.91,1.9-6.81,3.95-9.34l6.6.56Z"/>
      <path class="cls-6" d="m41.57,133.89c-1.87,2.27-3.5,4.24-3.5,8.78h-7.06c0-4.91,1.9-6.81,3.95-9.34l6.6.56Z"/>
      <rect class="cls-6" x="41.57" y="114.47" width="6.58" height="18.87" transform="translate(89.71 247.8) rotate(-180)"/>
      <path class="cls-6" d="m30.87,6.27c.35,15.37,2.11,35.85,6.75,48.32,4.92,13.22,10.35,26.08,23.49,31.64.23-.04,2.26-.36,2.52-.43-9.77-9.03-16.35-21.73-20.2-35.09-3.76-13.03-3.72-32.1-4.34-46.41-3.16.7-6.29,1.41-8.21,1.98Z"/>
      <path class="cls-5" d="m78.11,105.1c0-6.17-3.2-6.99-5.45-11.59-1.09-2.23-2.67-5.68-2.97-8.98l-3,.38c0,10.29,7.46,12.8,7.46,20.19h3.96Z"/>
      <path class="cls-5" d="m72.96,105.35c1.87,2.27,3.5,4.24,3.5,8.78h7.06c0-4.91-1.9-6.81-3.95-9.34l-6.6.56Z"/>
      <path class="cls-5" d="m88.89,133.89c1.87,2.27,3.5,4.24,3.5,8.78h7.06c0-4.91-1.9-6.81-3.95-9.34l-6.6.56Z"/>
      <rect class="cls-5" x="82.31" y="114.47" width="6.58" height="18.87"/>
      <path class="cls-5" d="m99.59,6.27c-.35,15.37-2.11,35.85-6.75,48.32-4.92,13.22-10.35,26.08-23.49,31.64-.23-.04-2.26-.36-2.52-.43,9.77-9.03,16.35-21.73,20.2-35.09,3.76-13.03,3.72-32.1,4.34-46.41,3.16.7,6.29,1.41,8.21,1.98Z"/>
      <g>
        <path class="cls-3" d="m130.1,30.06c-.19-3.39-1.15-6.72-3.21-9.45-2.22-2.95-5.21-4.99-8.76-5.99-3.42-.96-6.88-1.03-10.41-1.05-.45,0-.89,0-1.34,0,0-.85,0-1.7,0-2.55v-3.94c0-.55-.23-1.06-.8-1.24-2.49-.77-5.04-1.39-7.58-1.97-6.25-1.42-12.58-2.5-18.96-3.16-7.99-.83-16.01-.91-24.02-.24-6.61.55-13.18,1.56-19.66,2.96-3.22.7-6.51,1.4-9.65,2.44-.04.01-.09.03-.13.04-.22.07-.44.19-.64.34-.48.33-.83.81-.85,1.37-.01.1-.01.19,0,.29,0,1.97-.01,3.94-.02,5.91-2.89-.01-5.81-.02-8.65.47-3.59.62-7.09,1.96-9.8,4.46C2.86,21.26.97,24.58.34,28.28.07,29.86.02,31.48,0,33.08c0,1.31-.03,2.62.06,3.92.33,4.91,1.91,9.76,4.47,13.95,2.81,4.62,6.66,8.48,11.32,11.25,5.25,3.12,11.34,4.68,17.42,4.84.65.02,1.3.02,1.95.02,1.6,2.58,3.42,5.03,5.47,7.27,1.98,2.16,4.12,4.14,6.49,5.86,1.97,1.44,4.08,2.68,6.28,3.75.57.28,1.16.54,1.75.79-.15,1.33-.38,2.45-.83,3.77-.58,1.67-1.05,2.54-2.03,3.92-.47.67-.99,1.31-1.52,1.92-.05.06-.28.31-.29.33-.11.12-.22.24-.34.36-.34.35-.68.7-1.03,1.04-.76.74-1.59,1.43-2.26,2.26-.71.88-1.14,1.96-1.29,3.08-.1.72-.08,1.48-.06,2.22-1.39.04-2.73.32-3.94,1.05-1.82,1.1-3.14,2.98-3.31,5.12-.06.77-.06,1.55-.05,2.33-.27,0-.54.01-.8.04-1.71.15-2.98,1.72-3.05,3.39,0,.06,0,.13,0,.19-.01.11-.02.22-.02.33v15.3c-.79,0-1.57,0-2.36,0-2.41.02-4.54,1.29-5.9,3.23-.87,1.24-1.34,2.83-1.35,4.34,0,.72,0,1.44,0,2.17v1.95s0,.02,0,.03c-.02.18-.01.34,0,.49.04.27.12.52.23.76.2.47.53.86,1.06.98.13.03.25.03.36.02,0,0,.02,0,.03,0h74.81c1.01,0,2.05.07,3.05,0,.04,0,.09,0,.13,0,.71,0,1.23-.98,1.23-1.59,0-1.37,0-2.74,0-4.11-.02-3.45-1.85-6.61-5.16-7.85-1.39-.52-2.98-.42-4.45-.41v-14.55c0-1.58-.24-3.22-1.72-4.17-.66-.43-1.38-.5-2.13-.5.04-1.91,0-3.86-1.1-5.46-1.44-2.1-3.76-3.08-6.25-3.08h-.47c0-.45,0-.9,0-1.34,0-1.26-.25-2.46-.88-3.57-.53-.93-1.29-1.6-2.07-2.32-1.28-1.18-2.51-2.42-3.6-3.78-.06-.08-.12-.16-.19-.24-.01-.02-.05-.07-.09-.11-.05-.07-.19-.26-.22-.31-.23-.34-.46-.68-.67-1.04-.18-.31-.36-.62-.52-.94-.09-.17-.17-.34-.25-.51.17.36-.03-.08-.09-.22-.31-.78-.56-1.58-.75-2.4,0,.02-.06-.32-.08-.42-.04-.24-.08-.48-.12-.72-.05-.38-.1-.75-.13-1.13,1.73-.74,3.41-1.6,5.01-2.57,2.34-1.41,4.54-3.06,6.57-4.89,2.38-2.14,4.52-4.56,6.42-7.14.64-.87,1.26-1.77,1.84-2.68,3.12-.03,6.21-.24,9.27-.91,2.94-.64,5.76-1.68,8.44-3.05,4.76-2.43,8.93-6.09,11.96-10.5,2.99-4.35,4.94-9.28,5.64-14.52.37-2.73.33-5.55.17-8.29Zm-19.77-6.03s.04,0,.06,0c-.02,0-.04,0-.06,0,.03,0,.06.01.08.01.17.04.35.08.52.12.52.13,1.03.28,1.53.46.11.04.22.08.33.13-.07-.03-.3-.14.04.02.26.12.53.25.78.39.2.11.4.23.6.35-.03-.02.19.13.27.18.06.04.13.1.15.11.48.37.92.8,1.33,1.25,1.33,1.49,1.99,3.22,2.23,5.25.01.09.02.18.03.26,0,.04.01.12.01.13.02.23.03.47.04.7.02.5.02.99.02,1.49,0,.83,0,1.65-.05,2.48-.05.74-.15,1.48-.28,2.22-.07.36-.14.72-.23,1.08-.05.19-.09.38-.14.57,0,0,0,.01,0,.02,0,.01,0,.03-.01.04-.03.1-.06.21-.09.31-.47,1.53-1.11,3.01-1.89,4.41-.19.34-.39.67-.59.99-.1.15-.2.31-.3.46,0,0-.09.13-.13.19-.04.06-.1.15-.11.16-.49.68-1.02,1.33-1.58,1.95-.57.63-1.18,1.24-1.82,1.8-.16.14-.33.28-.49.42-.03.03-.11.09-.15.12-.05.04-.1.08-.14.11-.35.27-.7.53-1.06.78-.82.57-1.69,1.08-2.58,1.54-.2.1-.4.2-.6.3-.05.02-.14.06-.17.08-.12.05-.24.11-.36.16-.48.21-.98.4-1.47.57-.53.19-1.07.36-1.62.51-.26.07-.53.14-.8.21-.11.03-.22.05-.32.08-.03,0-.05.01-.06.01-.04,0-.08.02-.12.02-.36.07-.72.14-1.08.2,1.19-3.01,2.17-6.1,2.97-9.23,1.39-5.44,2.29-10.99,2.81-16.58.22-2.4.36-4.79.44-7.19.61,0,1.22.02,1.83.07.54.04,1.08.09,1.61.17.21.03.42.07.64.1-.17-.03-.07-.01.02,0ZM19.93,51.73s-.03-.02-.04-.03c-.01-.01-.03-.02-.04-.04-.08-.06-.15-.12-.23-.18-.15-.12-.3-.24-.45-.37-.36-.31-.72-.63-1.06-.96-.61-.58-1.19-1.2-1.73-1.85-.25-.3-.49-.61-.73-.92,0-.01-.03-.05-.06-.08-.04-.06-.14-.19-.14-.19-.13-.19-.26-.37-.38-.56-.45-.68-.86-1.38-1.23-2.1-.17-.34-.34-.68-.49-1.02-.08-.18-.16-.36-.24-.55,0,0,0-.01,0-.02-.04-.1-.08-.2-.11-.29-.28-.73-.51-1.47-.71-2.23-.1-.37-.18-.75-.26-1.12-.02-.09-.05-.2-.07-.3,0-.03,0-.06,0-.1-.02-.13-.04-.25-.05-.38-.22-1.64-.2-3.31-.16-4.96,0,0,0,0,0,0,0,0,0-.01,0-.02,0-.13.01-.26.02-.39.02-.21.03-.42.06-.63.02-.21.05-.42.08-.63.02-.13.04-.26.07-.39,0-.03.05-.21.07-.31.01-.05.03-.1.03-.12.04-.13.08-.26.12-.39.07-.21.15-.42.23-.63.03-.06.05-.13.08-.19.02-.04.08-.18.11-.23.14-.27.29-.53.46-.78.35-.53.59-.83,1.09-1.35.25-.26.51-.5.78-.74.01,0,.1-.08.13-.11.12-.09.24-.18.37-.26.98-.66,1.9-1.07,2.95-1.39,1.95-.58,3.86-.72,5.81-.76.21,5.49.7,10.97,1.63,16.38.84,4.89,2.02,9.74,3.69,14.41.13.36.26.72.4,1.08-.96-.18-1.91-.41-2.85-.69-.68-.21-1.63-.56-2.46-.93-.84-.37-1.66-.79-2.45-1.25-.77-.45-1.51-.94-2.22-1.47ZM5.12,23.95c-.03.06-.08.14,0,0h0Zm22.54,38.89c-.71-.15-1.41-.33-2.1-.52-.31-.09-.62-.18-.93-.28-.01,0-.29-.1-.34-.11-.17-.06-.34-.12-.51-.18-1.28-.46-2.54-.99-3.76-1.61-1.17-.59-2.31-1.26-3.41-1.99-.26-.17-.51-.35-.77-.53-.14-.1-.27-.2-.4-.29,0,0-.03-.02-.06-.04-.04-.03-.12-.09-.13-.1-.5-.39-.99-.79-1.47-1.21-1.86-1.63-3.53-3.47-4.95-5.49-.17-.24-.33-.48-.49-.72-.07-.1-.14-.21-.21-.31-.01-.02-.17-.26-.2-.31-.3-.49-.59-.99-.87-1.49-.57-1.06-1.09-2.14-1.53-3.26-.43-1.08-.8-2.18-1.11-3.29-.06-.24-.13-.47-.18-.71-.01-.04-.03-.14-.05-.2-.04-.16-.07-.33-.11-.49-.12-.55-.21-1.11-.3-1.67-.36-2.45-.36-4.95-.28-7.42,0-.16.01-.32.02-.48,0-.19,0,0,0,.03,0-.11.01-.21.02-.32.03-.37.06-.74.11-1.11.09-.72.22-1.44.41-2.15.02-.08.04-.16.06-.24,0,0,.01-.04.02-.08.02-.06.06-.17.06-.2.03-.08.05-.16.08-.24.13-.38.29-.75.45-1.11.07-.16.15-.32.23-.48.05-.1.11-.2.16-.3.22-.37.46-.74.72-1.09.24-.33.5-.66.77-.97.03-.03.23-.25.27-.29.19-.2.39-.4.59-.59.28-.26.58-.5.87-.75,0,0,0,0,0,0,.05-.03.09-.07.14-.1.19-.13.38-.26.58-.39.32-.2.65-.39.98-.57.13-.07.25-.13.38-.19.02,0,.38-.17.45-.2.74-.31,1.49-.56,2.26-.77.17-.05.35-.09.52-.13.02,0,.16-.04.23-.05.05-.01.11-.02.11-.02.41-.08.82-.16,1.24-.22.8-.12,1.61-.21,2.42-.27,1.66-.12,3.33-.1,4.99-.11.47,0,.94,0,1.41,0,0,1.05.01,2.1.03,3.15-1.77.04-3.53.17-5.26.6-2.35.59-4.55,1.68-6.26,3.41-1.88,1.91-3.09,4.28-3.54,6.92-.34,1.98-.32,4.08-.23,6.08.33,7.41,4.46,14.26,10.49,18.46,3.63,2.53,7.95,3.97,12.34,4.45.51,1.13,1.05,2.25,1.62,3.35-.36-.02-.74-.05-1.14-.09-1.5-.14-2.99-.36-4.46-.68Zm71,72.42s0,0,0,0h0Zm-.31,0s.07,0,.11,0c0,0,.01,0,.02,0,0,0,0,0,0,0,.05,0,.09,0,.11,0,.09,0,.19.02.28.03.33.04.66.11.97.21.05.02.25.08.31.1.04.02.09.04.1.04.11.06.22.11.33.17.26.14.5.3.74.48,0,0,.01.01.02.02.05.05.11.1.16.15.13.12.24.24.36.37.07.08.29.39.17.21.07.11.14.21.21.32.08.13.14.27.21.39-.22-.35.04.12.09.25.05.13.08.27.12.4,0,0,0-.02,0-.02,0,.01,0,.02,0,.03,0,0,0,.02,0,.03.02.05.02.13.02.15,0,0,0,.01,0,.02.02.15.03.31.05.47,0,0,0,0,0,0-.02.7,0,1.4,0,2.1v.3H29.18c-.5,0-1-.01-1.5-.02,0-.6,0-1.2,0-1.8,0-.24.01-.48.04-.72,0-.03.02-.11.02-.17,0-.02,0-.03,0-.03.05-.17.09-.34.15-.51.03-.1.19-.44.1-.27.06-.11.11-.22.17-.33.07-.13.15-.26.23-.38.04-.06.08-.12.13-.19.01-.02.04-.04.06-.07.22-.23.44-.46.68-.68.05-.04.1-.08.15-.13.16-.11.33-.21.5-.31.26-.14.54-.27.82-.37.02,0,.12-.04.17-.06.04-.01.1-.03.1-.03.18-.03.35-.07.53-.1,1.08-.16,2.24-.06,3.33-.06h.9c.05,0,.1.01.16.01h56.38c.76,0,1.53.04,2.29,0,.03,0,.07,0,.1,0,.05,0,.1,0,.15-.01,1.16,0,2.31,0,3.47,0Zm-5.19-19.19c-.03-.13,0-.21,0,0h0Zm0,0c-.03-.06-.03-.08,0,0h0Zm-.37,0c-.07,0,.23.04.27.05.01,0,.02,0,.04.01,0,0,.03.02.07.05,0,.03,0,.05,0,.08.04,5.04,0,10.08,0,15.13h-55.04c-.27,0-.54,0-.81-.01v-15.13s.04-.04.07-.06c0,0,.12-.05.2-.09.04,0,.24-.03.3-.03.1,0,.2,0,.31,0h53.26c.42,0,.84,0,1.27,0,.02,0,.05,0,.07,0Zm-5.95-8.8c.06.05.13.11,0,0h0Zm-2.18-.71c.16,0,.32,0,.49.02.12.01.23.03.35.05,0,0,0,0,.01,0,.09.03.2.05.29.09.03.01.22.08.3.11.05.02.1.05.12.06.09.05.17.1.26.15.11.06.21.14.31.2,0,0,.02.02.04.03.14.12.28.25.41.39.07.07.13.15.2.22,0,.01.15.21.17.23.21.34.38.69.52,1.06.01.03.02.04.02.06,0,0,0,0,0,0,.03.1.05.2.07.3.05.26.08.51.09.78.03.63.02,1.26.02,1.89h-46.18v-1.18c0-.23,0-.46,0-.69,0-.07,0-.36,0-.32.03-.39.12-.79.25-1.16,0,.02.08-.18.1-.26.03-.05.06-.12.07-.14.12-.22.25-.43.4-.63.01-.01.05-.06.08-.1.06-.06.19-.2.18-.19.12-.12.26-.24.39-.35-.15.13.2-.14.3-.2.09-.05.18-.1.26-.14.02-.01.04-.02.05-.03.02,0,.03-.01.05-.02.19-.06.39-.12.58-.18-.46.14.18-.01.33-.03.07,0,.12,0,.15-.01.16,0,.33,0,.49,0h37.48c.38,0,.76,0,1.13,0,.07,0,.14,0,.21,0Zm-9.63-12.58c.96,1.42,2.07,2.72,3.28,3.93.65.66,1.33,1.29,2.01,1.91.19.17.38.33.55.51.06.07.12.14.18.2.02.03.04.04.05.05,0,0,0,.01.02.02.11.16.21.33.29.5-.08-.14.07.31.11.39,0,.07.02.14.02.17,0,.08.01.13.02.17,0-.05,0-.13,0-.23,0,.06,0,.12,0,.18,0,.02,0,.04,0,.07,0,.03,0,.03,0,.01,0,.24,0,.47,0,.71v1.06h-32.17c0-.66,0-1.33,0-1.99.01-.85.23-1.47.72-2.1.01-.02.11-.12.15-.17.06-.05.15-.14.16-.15.18-.17.37-.34.55-.51.37-.35.74-.7,1.09-1.06,2.46-2.45,4.67-5.18,5.88-8.48.37-1.02.65-2.08.84-3.15,1.31.39,2.64.7,3.99.93.59.1,1.19.21,1.79.23.41.01.84-.04,1.25-.08.98-.11,1.95-.3,2.9-.53,1.12-.27,2.22-.58,3.31-.94.38,2.97,1.31,5.85,3,8.35Zm13.23-23.11s-.1.12-.12.15c-.13.16-.27.31-.4.47-.25.28-.49.56-.75.84-.98,1.08-2.02,2.1-3.11,3.08-.5.45-1.02.89-1.55,1.31-.02.02-.04.04-.07.05-.12.1-.25.19-.37.29-.25.19-.5.38-.75.56-.98.72-2,1.39-3.05,2.01-.48.29-.97.56-1.46.83-.2.11-.41.21-.61.32-.02,0-.04.02-.06.03-.12.06-.25.12-.37.18-1.65.79-3.35,1.47-5.1,2-.19.06-.37.11-.56.17-.06.02-.12.04-.19.05-.29.07-.58.15-.88.22-.55.13-1.1.24-1.65.34-.51.09-1.01.15-1.52.2-.2-.03-.41-.03-.61-.06-.4-.05-.79-.11-1.18-.17-.13-.02-.25-.04-.38-.07-.04,0-.07-.01-.11-.02-.27-.06-.54-.12-.8-.18-1.44-.34-2.85-.79-4.23-1.31-.09-.04-.19-.08-.29-.11-.92-.36-1.82-.76-2.71-1.19-.23-.11-.46-.23-.69-.35-.1-.05-.19-.1-.29-.15-.05-.03-.1-.05-.15-.08-.49-.27-.98-.55-1.47-.84-2.18-1.31-4.24-2.84-6.13-4.55-.54-.48-1.06-.98-1.57-1.49-.25-.25-.51-.51-.75-.77-.12-.12-.23-.25-.35-.37,0,0-.01-.01-.02-.02-.07-.07-.13-.15-.2-.22-1.07-1.19-2.08-2.43-3.03-3.72-2.16-2.95-3.99-6.14-5.52-9.45-.22-.47-.43-.94-.63-1.41-.09-.21-.18-.43-.27-.64,0-.02-.02-.04-.02-.05,0-.02-.02-.04-.03-.07-.05-.13-.1-.26-.16-.38-.41-1.02-.8-2.05-1.16-3.08-.77-2.19-1.43-4.42-2-6.68-1.34-5.29-2.19-10.69-2.68-16.12-.35-3.87-.48-7.77-.53-11.69,5.49-1.39,11.01-2.52,16.66-3.13,2.21-.24,4.43-.41,6.64-.54.58-.03,1.22-.55,1.3-1.14.08-.63-.48-.91-1.02-.88-6.92.41-13.75,1.34-20.49,2.95-1.04.25-2.07.51-3.1.77-.01-1.94,0-3.88,0-5.82v-2.55c.16-.05.33-.09.49-.14.03,0,.07-.02.1-.03.18-.05.36-.1.55-.15.43-.11.86-.22,1.3-.33,1.04-.26,2.08-.51,3.12-.75,6.13-1.4,12.35-2.44,18.6-3.09,7.73-.8,15.42-.89,23.21-.24,3.56.3,7.11.73,10.63,1.29,1.59.25,3.17.52,4.75.82.34.06.68.13,1.02.2.18.04.36.07.54.11.06.01.3.06.38.08.63.13,1.26.26,1.89.4,2.08.45,4.16.94,6.22,1.49.74.2,1.48.43,2.23.64,0,2.65.02,5.31.02,7.96-5.38-1.35-10.79-2.45-16.32-3.04-2.24-.24-4.49-.42-6.74-.55-.61-.04-1.27.29-1.51.88-.21.51.07,1.1.66,1.14,6.79.4,13.5,1.29,20.11,2.86,1.27.3,2.53.62,3.78.95,0,1.02-.02,2.03-.05,3.05-.14,6.04-.63,12.08-1.64,18.05-.22,1.32-.47,2.65-.75,3.96-.12.58-.25,1.16-.38,1.73-.02.07-.06.25-.07.29-.03.14-.07.27-.1.41-.08.31-.16.63-.24.94-.58,2.26-1.25,4.51-2.03,6.71-.7,1.98-1.48,3.92-2.36,5.82-.21.46-.43.91-.65,1.36-.11.21-.21.42-.32.64-.01.03-.03.05-.04.07-.05.1-.1.19-.15.29-.35.66-.71,1.32-1.09,1.97-.04.06-.08.13-.11.19-.05.09-.1.17-.15.26-.89,1.5-1.85,2.96-2.89,4.36-.48.65-.97,1.28-1.48,1.9Zm38.91-34.13c-.05.58-.11,1.16-.2,1.73-.02.11-.06.24-.06.36-.05.29-.11.58-.17.87-.24,1.14-.55,2.28-.92,3.38-.09.27-.18.53-.28.79-.04.12-.07.26-.14.36,0,0,.14-.35.06-.15-.04.1-.08.2-.12.3-.22.54-.46,1.08-.71,1.61-.51,1.08-1.08,2.12-1.7,3.13-.13.21-.26.41-.39.62-.02.03-.07.11-.12.18-.1.15-.2.3-.31.44-.35.5-.72.98-1.1,1.46-.77.96-1.6,1.88-2.48,2.75-.21.21-.43.42-.65.62-.03.02-.04.04-.05.05-.01.01-.03.02-.04.04-.14.12-.28.25-.42.37-.48.42-.97.82-1.48,1.2-1.03.79-2.11,1.51-3.23,2.16-.57.33-1.16.65-1.75.95-.11.06-.22.11-.34.17-.04.02-.27.13-.31.15-.32.15-.64.29-.97.43-1.28.54-2.6,1-3.95,1.38-2.86.81-5.57,1.2-8.46,1.3.58-1.08,1.12-2.17,1.64-3.28.04-.1.09-.19.13-.29,4.19-.37,8.32-1.6,11.93-3.8,3.26-1.98,5.99-4.7,8.02-7.92,1.83-2.89,3.02-6.23,3.39-9.64.19-1.78.18-3.64.06-5.43-.16-2.29-.73-4.48-2.07-6.38-1.7-2.42-4.12-4.08-6.94-4.96-2.21-.69-4.47-.85-6.75-.9.02-1.13.04-2.26.05-3.39,2.81-.01,5.65-.03,8.43.4,2.98.46,6,1.54,8.23,3.6.64.59,1.19,1.2,1.71,1.89.25.33.48.67.7,1.03.11.18.22.37.32.55.03.06.18.35.19.36.32.67.58,1.37.78,2.08,0,.03.03.12.05.18,0,.03.01.05.02.06.04.16.07.32.1.48.07.37.13.74.18,1.11.05.34.08.69.11,1.03.02.19.03.37.04.56,0,.08,0,.16.01.24,0,.02,0,.06,0,.11,0,.06,0,.13,0,.16,0,.08,0,.16,0,.24,0,.16,0,.32,0,.48,0,.37,0,.74,0,1.11,0,1.22,0,2.43-.1,3.64Z"/>
        <path class="cls-3" d="m110.33,24.04s-.01,0-.02,0c0,0,.01,0,.02,0,0,0,0,0,0,0Z"/>
        <path class="cls-3" d="m81.55,101.86s0-.02,0-.02c0,.02,0,.03,0,.04,0,0,0,0,0-.01Z"/>
        <path class="cls-3" d="m102.71,138.61c0-.06-.02-.12-.03-.18,0,0,0,0,0,0,.02.19.03.22.03.19Z"/>
      </g>
      <polygon class="cls-4" points="76.61 55.53 65.23 49.65 53.93 55.7 56 43.05 46.76 34.17 59.43 32.24 65.01 20.7 70.77 32.15 83.46 33.9 74.35 42.91 76.61 55.53"/>
    </g>
  </g>
</svg>