<?xml version="1.0" encoding="UTF-8"?>
<svg id="Layer_2" data-name="Layer 2" xmlns="http://www.w3.org/2000/svg" xmlns:xlink="http://www.w3.org/1999/xlink" viewBox="0 0 126.62 149.2">
  <defs>
    <style>
      .cls-1 {
        fill: #f9c7a5;
      }

      .cls-2 {
        filter: url(#drop-shadow-1);
      }

      .cls-3 {
        fill: #313131;
      }
    </style>
    <filter id="drop-shadow-1" filterUnits="userSpaceOnUse">
      <feOffset dx="-3.08" dy="3.08"/>
      <feGaussianBlur result="blur" stdDeviation="7.7"/>
      <feFlood flood-color="#000" flood-opacity=".25"/>
      <feComposite in2="blur" operator="in"/>
      <feComposite in="SourceGraphic"/>
    </filter>
  </defs>
  <g id="easy">
    <g class="cls-2">
      <path class="cls-3" d="m74.6,23.73c-.93,0-1.68-.75-1.68-1.68l-1.68-20.37c0-.93.75-1.68,1.68-1.68s1.68.75,1.68,1.68l1.68,20.37c0,.93-.75,1.68-1.68,1.68Z"/>
      <path class="cls-3" d="m102.89,46.71c0-.93.75-1.68,1.68-1.68l20.37-1.68c.93,0,1.68.75,1.68,1.68s-.75,1.68-1.68,1.68l-20.37,1.68c-.93,0-1.68-.75-1.68-1.68Z"/>
      <path class="cls-3" d="m94.32,28.25c-.61-.7-.53-1.77.18-2.37l14.32-14.58c.7-.61,1.77-.53,2.37.18s.53,1.77-.18,2.37l-14.32,14.58c-.7.61-1.77.53-2.37-.18Z"/>
      <g>
        <path class="cls-1" d="m76.56,93.41l5.71-5.61c1.34-1.31,2.9-2.12,4.53-2.2,1.61-.09,3.28.54,4.79,2.07,3.02,3.07,2.69,7.01.02,9.63l-26.57,26.1c-2.4,2.36-5.02,4.15-7.45,5.49-6.76,3.76-11.21,6.54-16.3,11.11-1.89,1.68-3.63,3.54-5.22,5.5l-.04.06c-1.39,1.71-3.72,2.4-6.06,1.69-3.8-1.14-9.98-4.09-17.46-11.71-7.92-8.06-10.18-14.43-10.75-18.06-.31-1.9.25-3.72,1.5-4.95l.02-.02c2.15-2.48,3.06-3.71,3.88-5.21,2.92-5.3,3.38-4.97,4.8-13.5,1.08-6.5,8.31-15.77,9.71-21.31l2.06-23.26c.36-3.52,2.57-6.67,7.97-6.11,5.01.52,5.93,4.87,6.11,7.18l.34,23.78,38.83-38.15c1.34-1.31,3.08-1.95,4.81-1.95,1.74.02,3.47.7,4.78,2.03,2.57,2.62,2.58,6.79.07,9.42l-29.13,28.62h0s12-11.8,12-11.8c2.67-2.63,6.97-2.59,9.59.09h0c2.63,2.67,2.59,6.97-.09,9.59l-12,11.81,8.99-8.83c2.67-2.62,6.97-2.59,9.59.09,1.31,1.34,1.95,3.08,1.95,4.81-.02,1.74-.7,3.47-2.03,4.78l-3.28,3.22-5.71,5.61Z"/>
        <path class="cls-3" d="m11.32,136.72C3.22,128.47.75,121.85.11,117.74c-.4-2.44.33-4.78,1.99-6.41,1.94-2.24,2.84-3.43,3.61-4.85.47-.85.87-1.56,1.23-2.18,1.81-3.16,2.24-3.91,3.38-10.79.64-3.87,3.15-8.37,5.57-12.73,1.81-3.26,3.53-6.33,4.13-8.6l2.05-23.12c.25-2.38,1.16-4.33,2.64-5.68,1.77-1.61,4.18-2.26,7.18-1.95,4.44.46,7.22,3.64,7.61,8.72l.28,19.96,36.03-35.39c1.6-1.58,3.74-2.44,6-2.43,2.28.03,4.39.93,5.97,2.54,3.21,3.27,3.25,8.44.09,11.76l-12.35,12.13c1.76.26,3.46,1.07,4.8,2.44,2.72,2.77,3.15,6.95,1.29,10.16,1.91.19,3.76,1.02,5.2,2.49,1.58,1.61,2.44,3.74,2.43,6-.02,1.5-.42,2.92-1.14,4.17,1.68.24,3.27,1.1,4.66,2.51,3.48,3.54,3.48,8.59,0,12.01l-26.57,26.1c-2.22,2.19-4.85,4.12-7.81,5.76-6.72,3.74-11.04,6.45-15.99,10.89-1.77,1.57-3.46,3.36-5.03,5.31-1.88,2.31-4.96,3.19-7.9,2.3-4.03-1.2-10.46-4.29-18.17-12.14Zm23.23-90.64c-1.08-1.1-2.39-1.23-3-1.3-2-.21-3.54.16-4.57,1.1-1.09.99-1.45,2.46-1.56,3.51l-2.06,23.24c0,.09-.02.18-.04.26-.68,2.7-2.53,6.02-4.49,9.53-2.28,4.1-4.65,8.35-5.19,11.64-1.2,7.2-1.73,8.32-3.78,11.91-.35.61-.74,1.3-1.2,2.13-.91,1.65-1.9,2.99-4.09,5.51-.03.03-.06.07-.09.1-.89.88-1.27,2.15-1.05,3.5.47,2.97,2.42,9.14,10.29,17.15,7.21,7.34,13.08,10.18,16.74,11.28,1.66.51,3.29.07,4.27-1.14,1.72-2.14,3.54-4.06,5.45-5.75,5.18-4.64,9.66-7.46,16.6-11.32,2.69-1.49,5.08-3.25,7.09-5.22l26.57-26.1c2.19-2.15,2.18-5-.04-7.26-1.09-1.11-2.27-1.64-3.49-1.57-1.17.06-2.36.66-3.44,1.72l-5.71,5.61c-.66.65-1.73.64-2.38-.02s-.64-1.73.02-2.38l8.99-8.83c.97-.95,1.51-2.23,1.53-3.6,0-1.36-.52-2.65-1.47-3.61-1.97-2.01-5.21-2.04-7.21-.06l-8.99,8.83c-.66.65-1.73.64-2.38-.02h0c-.65-.66-.64-1.73.02-2.38l12-11.81c2.01-1.97,2.04-5.21.06-7.22s-5.21-2.04-7.21-.06l-12,11.81c-.32.31-.75.49-1.19.48-.45,0-.87-.18-1.18-.5-.65-.66-.65-1.74.01-2.39l29.13-28.62c1.86-1.96,1.84-5.07-.1-7.04-.95-.97-2.23-1.51-3.6-1.53-1.36,0-2.65.52-3.61,1.47l-38.83,38.15c-.48.47-1.2.61-1.82.36-.62-.26-1.03-.86-1.04-1.53l-.33-23.78c-.17-2.14-.82-3.44-1.6-4.23Z"/>
      </g>
    </g>
  </g>
</svg>