<?xml version="1.0" encoding="UTF-8"?>
<svg id="Layer_2" data-name="Layer 2" xmlns="http://www.w3.org/2000/svg" xmlns:xlink="http://www.w3.org/1999/xlink" viewBox="0 0 146.94 147.62">
  <defs>
    <style>
      .cls-1 {
        fill: #fb0;
      }

      .cls-2 {
        filter: url(#drop-shadow-1);
      }

      .cls-3 {
        fill: #313131;
      }

      .cls-4 {
        fill: #e88d00;
      }

      .cls-5 {
        fill: #ee7942;
      }
    </style>
    <filter id="drop-shadow-1" filterUnits="userSpaceOnUse">
      <feOffset dx="-3.08" dy="3.08"/>
      <feGaussianBlur result="blur" stdDeviation="7.7"/>
      <feFlood flood-color="#000" flood-opacity=".25"/>
      <feComposite in2="blur" operator="in"/>
      <feComposite in="SourceGraphic"/>
    </filter>
  </defs>
  <g id="warmup">
    <g class="cls-2">
      <g>
        <g>
          <path class="cls-1" d="m73.31,113.79c-7.69,0-26.71-2.53-37.24-25.96-5.17-11.51-3.95-25.44,3.26-37.26l.32-.52c6.57-10.48,19.03-16.73,33.34-16.73,2.63,0,5.27.22,7.86.65,19.54,3.26,29.5,17.46,32.29,29.67,4.31,18.82-1.47,41.58-30.61,49.02-2.96.75-6.06,1.14-9.23,1.14h0Z"/>
          <path class="cls-3" d="m72.99,34.32c2.57,0,5.15.21,7.7.64,20.38,3.4,29.13,18.62,31.48,28.91,4.09,17.85-.91,40.43-29.88,47.83-2.78.71-5.81,1.11-8.98,1.11-12.86,0-27.87-6.54-36.33-25.37-5.25-11.68-3.52-25.32,3.2-36.33.1-.17.21-.34.32-.51,6.79-10.83,19.49-16.26,32.5-16.26m0-2c-14.66,0-27.44,6.43-34.19,17.2-.11.18-.22.35-.33.53-7.38,12.1-8.62,26.38-3.32,38.19,10.77,23.97,30.27,26.55,38.15,26.55,3.25,0,6.44-.39,9.48-1.17,29.84-7.61,35.75-30.93,31.34-50.21-2.87-12.52-13.07-27.1-33.1-30.44-2.65-.44-5.35-.66-8.03-.66h0Z"/>
        </g>
        <g>
          <path class="cls-1" d="m73.87,24.75c-1.37,0-2.55-1.02-3.14-1.9-.87-1.29-.97-2.79-.97-3.8V6.31c0-2.56,1.86-5.3,4.64-5.31,1.37,0,2.55,1.02,3.14,1.9.87,1.29.97,2.79.97,3.8v12.74c0,2.56-1.86,5.3-4.64,5.31h0Z"/>
          <path class="cls-3" d="m74.4,2c.92,0,1.83.74,2.31,1.46.65.96.8,2.11.8,3.24v12.74c0,2.01-1.48,4.3-3.64,4.31h0c-.92,0-1.83-.74-2.31-1.46-.65-.96-.8-2.11-.8-3.24V6.31c0-2.01,1.48-4.3,3.64-4.31h0m0-2h0c-3.37,0-5.64,3.26-5.64,6.31v12.74c0,1.14.12,2.84,1.15,4.36.76,1.13,2.21,2.34,3.97,2.34,3.38,0,5.64-3.26,5.64-6.31V6.7c0-1.14-.12-2.84-1.15-4.36-.76-1.13-2.21-2.34-3.97-2.34h0Z"/>
        </g>
        <g>
          <path class="cls-1" d="m46.6,31.78c-1.21-.07-2.49-.87-3.12-1.96l-3.47-6.01c-.66-1.15-.97-2.38-.94-3.77.03-1.31.53-2.63,1.39-3.72.75-.95,1.98-1.56,3.12-1.56.06,0,.13,0,.19,0,1.21.07,2.49.87,3.12,1.96l3.44,5.95c.7,1.21,1.01,2.44.97,3.83-.03,1.31-.53,2.63-1.39,3.72-.75.95-1.98,1.56-3.12,1.56,0,0-.13,0-.19,0Z"/>
          <path class="cls-3" d="m43.58,15.76s.09,0,.13,0c.89.05,1.87.69,2.31,1.46.15.25.29.51.44.76l3.03,5.25c.59,1.02.83,2.07.8,3.24-.03,1.13-.48,2.25-1.17,3.13-.53.67-1.46,1.18-2.34,1.18-.04,0-.09,0-.13,0-.89-.05-1.87-.69-2.31-1.46-.15-.25-.29-.51-.44-.76-1.01-1.75-2.02-3.5-3.03-5.25-.59-1.02-.83-2.07-.8-3.24.03-1.13.48-2.25,1.17-3.13.53-.67,1.46-1.18,2.34-1.18m0-2c-1.44,0-2.97.76-3.9,1.94-1,1.26-1.57,2.8-1.61,4.32-.04,1.57.31,2.98,1.07,4.29l3.03,5.25.12.2.32.56c.8,1.38,2.37,2.36,3.93,2.45.08,0,.16,0,.25,0,1.44,0,2.97-.76,3.9-1.94,1-1.26,1.57-2.8,1.61-4.32.04-1.57-.31-2.98-1.07-4.29l-1.52-2.63-1.52-2.63-.44-.76c-.8-1.38-2.37-2.36-3.93-2.45-.08,0-.16,0-.25,0h0Z"/>
        </g>
        <g>
          <path class="cls-1" d="m27.18,51.45c-.65,0-1.26-.16-1.78-.46l-10.75-6.21c-2.21-1.28-3.37-4.12-2.81-6.91.21-1.05.94-2.41,2.08-3.08.54-.32,1.21-.49,1.87-.49s1.26.16,1.78.46l10.76,6.21c2.21,1.28,3.37,4.12,2.81,6.91-.21,1.05-.94,2.41-2.08,3.08-.54.32-1.21.49-1.87.49h0Z"/>
          <path class="cls-3" d="m15.8,35.31c.45,0,.9.1,1.28.32.44.26.89.51,1.33.77,1.94,1.12,3.87,2.23,5.81,3.35,1.21.7,2.41,1.39,3.62,2.09,2.01,1.16,2.76,3.66,2.33,5.84-.18.9-.79,1.93-1.61,2.41-.4.23-.88.35-1.37.35-.45,0-.9-.1-1.28-.32-.44-.26-.89-.51-1.33-.77-1.94-1.12-3.87-2.23-5.81-3.35-1.21-.7-2.41-1.39-3.62-2.09-2.01-1.16-2.76-3.66-2.33-5.84.18-.9.79-1.93,1.61-2.41.4-.23.88-.35,1.37-.35m0-2c-.85,0-1.68.22-2.38.63-1.24.73-2.25,2.2-2.56,3.74-.65,3.25.67,6.46,3.29,7.97l3.62,2.09,3.09,1.79,2.71,1.57,1.33.77c.67.39,1.46.59,2.28.59s1.68-.22,2.38-.63c1.24-.73,2.25-2.2,2.56-3.74.65-3.25-.67-6.46-3.29-7.97l-.26-.15-3.36-1.94-5.81-3.35-.64-.37-.69-.4c-.67-.39-1.46-.59-2.28-.59h0Z"/>
        </g>
        <g>
          <path class="cls-1" d="m6.72,78.58c-1.48,0-2.92-.59-4.16-1.71-1.07-.97-1.61-2.36-1.55-4.02.05-1.39.9-2.91,2.17-3.88,1.18-.91,2.68-1.39,4.34-1.39h10.5c1.48,0,2.92.59,4.16,1.71,1.09.98,1.61,2.33,1.55,4.02-.05,1.39-.9,2.91-2.17,3.88-1.18.91-2.68,1.39-4.34,1.39H6.72Z"/>
          <path class="cls-3" d="m18.02,68.57c1.49,0,2.67.72,3.5,1.46,1.02.91,1.26,2.14,1.22,3.24-.04,1.05-.73,2.32-1.78,3.13-.96.74-2.24,1.18-3.73,1.18H6.72c-1.49,0-2.67-.72-3.5-1.46-1.02-.91-1.26-2.14-1.22-3.24.04-1.05.73-2.32,1.78-3.13.96-.74,2.24-1.18,3.73-1.18h10.51m0-2H7.51c-1.88,0-3.59.55-4.95,1.59-1.49,1.15-2.5,2.97-2.56,4.64-.07,1.97.58,3.63,1.88,4.8,1.44,1.29,3.11,1.97,4.83,1.97h10.51c1.88,0,3.59-.55,4.95-1.59,1.49-1.15,2.5-2.97,2.56-4.64.07-1.97-.58-3.64-1.88-4.8-1.44-1.29-3.11-1.97-4.83-1.97h0Z"/>
        </g>
        <g>
          <path class="cls-1" d="m14.3,111.38c-1.65,0-3.06-.61-3.99-1.72-.88-1.05-.89-2.57-.5-3.62.54-1.46,1.84-2.38,2.56-2.79l11.42-6.59c.96-.56,2.12-.86,3.27-.86,1.65,0,3.06.61,3.99,1.72.88,1.05.89,2.57.5,3.62-.54,1.46-1.83,2.38-2.56,2.79l-11.42,6.59c-.96.56-2.12.86-3.27.86h0Z"/>
          <path class="cls-3" d="m27.06,96.8c1.23,0,2.43.41,3.23,1.36.59.7.63,1.81.33,2.63-.36.98-1.24,1.77-2.12,2.28-.47.27-.94.54-1.41.82-2.05,1.18-4.1,2.37-6.15,3.55-1.29.74-2.57,1.48-3.86,2.23-.8.46-1.79.73-2.77.73-1.23,0-2.43-.41-3.23-1.36-.59-.7-.63-1.81-.33-2.63.36-.98,1.24-1.77,2.12-2.28.47-.27.94-.54,1.41-.82,2.05-1.18,4.1-2.37,6.15-3.55,1.29-.74,2.57-1.48,3.86-2.23.8-.46,1.79-.73,2.77-.73m0-2c-1.32,0-2.66.35-3.77,1l-3.86,2.23-1.26.73-4.89,2.82-.71.41-.71.41c-.84.49-2.35,1.56-3,3.31-.59,1.6-.33,3.41.67,4.6,1.12,1.34,2.81,2.08,4.76,2.08,1.32,0,2.66-.35,3.77-1l1.93-1.11,1.93-1.11,3.07-1.78,3.07-1.78.46-.27.95-.55c.84-.49,2.35-1.56,3-3.31.59-1.6.33-3.41-.67-4.6-1.12-1.34-2.81-2.08-4.76-2.08h0Z"/>
        </g>
        <g>
          <path class="cls-1" d="m42.55,131.88c-.83,0-1.69-.33-2.48-.94-1.05-.82-1.6-2.3-1.77-3.42-.16-1.08-.08-2.8.67-4.1l3.47-6.01c.72-1.24,1.56-2,2.67-2.39.34-.12.69-.18,1.05-.18.83,0,1.69.33,2.48.94,1.05.82,1.6,2.3,1.77,3.42.16,1.08.08,2.8-.67,4.1l-3.47,6.01c-.72,1.24-1.56,2-2.67,2.39-.34.12-.69.18-1.05.18h0Z"/>
          <path class="cls-3" d="m46.16,115.83c.68,0,1.33.31,1.86.73.78.61,1.25,1.84,1.39,2.78.16,1.07,0,2.5-.54,3.45-.15.25-.29.51-.44.76-1.01,1.75-2.02,3.5-3.03,5.25-.51.89-1.16,1.6-2.14,1.95-.24.08-.48.12-.71.12-.68,0-1.33-.31-1.86-.73-.78-.61-1.25-1.84-1.39-2.78-.16-1.07,0-2.5.54-3.45.15-.25.29-.51.44-.76l3.03-5.25c.51-.89,1.16-1.6,2.14-1.95.24-.08.48-.12.71-.12m0-2c-.47,0-.94.08-1.38.24-1.32.47-2.37,1.4-3.2,2.84l-1.52,2.63-1.52,2.63-.44.76c-.88,1.52-.97,3.51-.79,4.75.2,1.31.86,3.06,2.14,4.06.97.75,2.04,1.15,3.09,1.15.47,0,.94-.08,1.38-.24,1.32-.47,2.37-1.4,3.2-2.84l3.03-5.25.44-.76c.88-1.52.97-3.51.79-4.75-.2-1.31-.86-3.06-2.14-4.06-.97-.75-2.03-1.15-3.09-1.15h0Z"/>
        </g>
        <g>
          <path class="cls-1" d="m72.91,146.62c-1.37,0-2.54-1.02-3.14-1.9-.87-1.29-.97-2.79-.97-3.8v-13.25c0-2.56,1.86-5.3,4.64-5.31,1.37,0,2.55,1.02,3.14,1.9.87,1.29.97,2.79.97,3.8v13.25c0,2.56-1.86,5.3-4.64,5.31h0Z"/>
          <path class="cls-3" d="m73.45,123.36c.92,0,1.83.74,2.31,1.46.65.96.8,2.11.8,3.24v13.25c0,2.01-1.48,4.3-3.64,4.31h0c-.92,0-1.83-.74-2.31-1.46-.65-.96-.8-2.11-.8-3.24v-13.25c0-2.01,1.48-4.3,3.64-4.31h0m0-2h0c-3.37,0-5.64,3.26-5.64,6.31v13.25c0,1.14.12,2.84,1.15,4.36.76,1.13,2.21,2.34,3.97,2.34,3.38,0,5.64-3.26,5.64-6.31v-13.25c0-1.14-.12-2.84-1.15-4.36-.76-1.13-2.21-2.34-3.97-2.34h0Z"/>
        </g>
        <g>
          <path class="cls-1" d="m103.55,132.34c-1.21-.07-2.49-.88-3.12-1.96l-3.47-6.01c-.66-1.15-.97-2.38-.94-3.77.03-1.31.53-2.63,1.39-3.72.75-.95,1.98-1.56,3.12-1.56.06,0,.12,0,.19,0,1.21.07,2.5.88,3.12,1.96l3.47,6.01c.66,1.15.97,2.38.94,3.77-.03,1.31-.53,2.63-1.39,3.72-.75.95-1.98,1.56-3.12,1.56,0,0-.13,0-.19,0Z"/>
          <path class="cls-3" d="m100.53,116.32s.09,0,.13,0c.89.05,1.87.69,2.31,1.46.15.25.29.51.44.76,1.01,1.75,2.02,3.5,3.03,5.25.59,1.02.83,2.07.8,3.24-.03,1.13-.48,2.25-1.17,3.13-.53.67-1.46,1.18-2.34,1.18-.04,0-.09,0-.13,0-.89-.05-1.87-.69-2.31-1.46-.15-.25-.29-.51-.44-.76l-3.03-5.25c-.59-1.02-.83-2.07-.8-3.24.03-1.13.48-2.25,1.17-3.13.53-.67,1.46-1.18,2.34-1.18m0-2c-1.44,0-2.97.76-3.9,1.94-1,1.26-1.57,2.8-1.61,4.32-.04,1.57.31,2.98,1.07,4.29l1.52,2.63,1.52,2.63.22.38.22.38c.8,1.38,2.37,2.36,3.93,2.45.08,0,.16,0,.25,0,1.44,0,2.97-.76,3.9-1.94,1-1.26,1.57-2.8,1.61-4.32.04-1.57-.31-2.98-1.07-4.29l-3.03-5.25-.12-.2-.32-.56c-.8-1.38-2.37-2.36-3.93-2.45-.08,0-.16,0-.25,0h0Z"/>
        </g>
        <g>
          <path class="cls-1" d="m134.3,114.12c-.75,0-1.53-.24-2.38-.73l-13.17-7.6c-1.01-.58-1.83-1.66-2.42-3.19-.47-1.22-.52-2.63-.15-3.97.35-1.23,1.33-2.32,2.46-2.71.37-.13.75-.19,1.14-.19.75,0,1.53.24,2.38.73l13.17,7.6c1.01.58,1.83,1.66,2.42,3.19.47,1.22.52,2.63.15,3.97-.35,1.23-1.33,2.32-2.46,2.71-.37.13-.75.19-1.14.19h0Z"/>
          <path class="cls-3" d="m119.78,96.73c.66,0,1.3.26,1.88.6.54.31,1.08.62,1.62.93,2.36,1.37,4.73,2.73,7.09,4.1,1.49.86,2.97,1.71,4.46,2.57.97.56,1.59,1.67,1.99,2.68.41,1.05.42,2.26.12,3.34-.24.87-.96,1.73-1.82,2.04-.27.1-.54.14-.81.14-.66,0-1.3-.26-1.88-.6-.54-.31-1.08-.62-1.62-.93-2.36-1.37-4.73-2.73-7.09-4.1-1.49-.86-2.97-1.71-4.46-2.57-.97-.56-1.59-1.67-1.99-2.68-.41-1.05-.42-2.26-.12-3.34.24-.87.96-1.73,1.82-2.04.27-.1.54-.14.81-.14m0-2c-.5,0-1,.08-1.47.25-1.44.5-2.65,1.83-3.09,3.38-.44,1.55-.37,3.18.18,4.6.68,1.75,1.64,2.99,2.85,3.69l.64.37,3.82,2.2,1.21.7,5.88,3.39.81.47.81.47c1.01.58,1.95.86,2.89.86.5,0,1-.08,1.47-.25,1.44-.5,2.65-1.83,3.09-3.38.44-1.55.37-3.18-.18-4.6-.68-1.75-1.64-2.99-2.85-3.69l-.56-.32-3.89-2.25-1.69-.98-5.4-3.12-.5-.29-1.12-.64c-1.01-.58-1.95-.86-2.89-.86h0Z"/>
        </g>
        <g>
          <path class="cls-1" d="m129.22,79.54c-1.46,0-2.88-.6-4.11-1.72-1.07-.98-1.58-2.33-1.52-4.02.05-1.38.89-2.91,2.13-3.88,1.16-.91,2.64-1.39,4.28-1.39h10.31c1.46,0,2.88.6,4.11,1.72,1.07.98,1.58,2.33,1.52,4.02-.05,1.38-.89,2.91-2.13,3.88-1.16.91-2.64,1.39-4.28,1.39h-10.31Z"/>
          <path class="cls-3" d="m140.31,69.53c1.46,0,2.63.72,3.43,1.46,1,.91,1.23,2.14,1.19,3.24-.04,1.05-.72,2.32-1.75,3.13-.95.74-2.2,1.18-3.66,1.18h-10.31c-1.46,0-2.63-.72-3.43-1.46-1-.91-1.23-2.14-1.19-3.24.04-1.05.72-2.32,1.75-3.13.95-.74,2.2-1.18,3.66-1.18h10.31m0-2h-10.31c-1.86,0-3.55.55-4.89,1.6-1.46,1.15-2.45,2.96-2.51,4.63-.09,2.48.95,3.98,1.84,4.79,1.42,1.3,3.07,1.98,4.78,1.98h10.31c1.86,0,3.55-.55,4.89-1.6,1.46-1.15,2.45-2.96,2.51-4.63.09-2.48-.95-3.98-1.84-4.79-1.42-1.3-3.07-1.98-4.78-1.98h0Z"/>
        </g>
        <g>
          <path class="cls-1" d="m121.36,52.26c-.54,0-1.09-.12-1.65-.35-1.05-.43-1.9-1.35-2.61-2.79-.57-1.17-.76-2.79-.48-4.11.22-1.07.87-2.45,2.02-3.11l11.75-6.78c.59-.34,1.22-.51,1.87-.51.54,0,1.09.12,1.65.35,1.05.43,1.9,1.35,2.6,2.79.57,1.17.76,2.79.48,4.11-.22,1.07-.87,2.45-2.02,3.11l-11.75,6.78c-.59.34-1.22.51-1.87.51h0Z"/>
          <path class="cls-3" d="m132.25,35.59c.42,0,.85.1,1.27.27.98.41,1.64,1.39,2.09,2.31.48.99.63,2.39.4,3.47-.19.89-.71,1.97-1.54,2.45-.49.28-.98.56-1.46.84-2.11,1.22-4.21,2.43-6.32,3.65-1.32.76-2.64,1.52-3.96,2.29-.45.26-.91.38-1.37.38-.42,0-.85-.1-1.27-.27-.98-.41-1.64-1.39-2.09-2.31-.48-.99-.63-2.39-.4-3.47.19-.89.71-1.97,1.54-2.45.49-.28.98-.56,1.46-.84,2.11-1.22,4.21-2.43,6.32-3.65,1.32-.76,2.64-1.52,3.96-2.29.45-.26.91-.38,1.37-.38m0-2c-.83,0-1.63.22-2.37.65l-2.39,1.38-1.58.91-3.16,1.83-3.16,1.83-.35.2-1.12.65c-1.8,1.04-2.37,3.15-2.5,3.77-.32,1.53-.1,3.4.56,4.76.8,1.65,1.86,2.76,3.12,3.28.68.28,1.37.43,2.04.43.83,0,1.63-.22,2.37-.65l3.92-2.26,3.2-1.85,3.16-1.83.82-.48.64-.37c1.8-1.04,2.37-3.15,2.5-3.77.32-1.53.1-3.4-.56-4.76-.8-1.65-1.86-2.76-3.12-3.28-.68-.28-1.37-.43-2.04-.43h0Z"/>
        </g>
        <g>
          <path class="cls-1" d="m101.16,32.28c-.83,0-1.69-.33-2.48-.94-1.05-.82-1.6-2.3-1.77-3.42-.16-1.08-.08-2.8.67-4.1l3.47-6.01c.72-1.24,1.56-2,2.67-2.39.34-.12.69-.18,1.05-.18.83,0,1.69.33,2.48.94,1.05.82,1.6,2.3,1.77,3.42.16,1.08.08,2.8-.67,4.1l-3.47,6.01c-.72,1.24-1.56,2-2.67,2.39-.34.12-.69.18-1.05.18h0Z"/>
          <path class="cls-3" d="m104.77,16.23c.68,0,1.33.31,1.86.73.78.61,1.25,1.84,1.39,2.78.16,1.07,0,2.5-.54,3.45-.15.25-.29.51-.44.76-1.01,1.75-2.02,3.5-3.03,5.25-.51.89-1.16,1.6-2.14,1.95-.24.08-.48.12-.71.12-.68,0-1.33-.31-1.86-.73-.78-.61-1.25-1.84-1.39-2.78-.16-1.07,0-2.5.54-3.45.15-.25.29-.51.44-.76,1.01-1.75,2.02-3.5,3.03-5.25.51-.89,1.16-1.6,2.14-1.95.24-.08.48-.12.71-.12m0-2c-.47,0-.94.08-1.38.24-1.32.47-2.37,1.4-3.2,2.84l-3.03,5.25-.44.76c-.88,1.52-.97,3.51-.79,4.75.2,1.31.86,3.06,2.14,4.06.97.75,2.04,1.15,3.09,1.15.47,0,.94-.08,1.38-.24,1.32-.47,2.37-1.4,3.2-2.84l3.03-5.25.44-.76c.88-1.52.97-3.51.79-4.75-.2-1.31-.86-3.06-2.14-4.06-.97-.75-2.03-1.15-3.09-1.15h0Z"/>
        </g>
        <path class="cls-4" d="m65.9,70.49c-.64,0-1.24-.38-1.5-1-1.2-2.89-3.99-4.75-7.12-4.75s-5.92,1.87-7.12,4.75c-.34.83-1.29,1.22-2.12.88-.83-.34-1.22-1.29-.88-2.12,1.7-4.1,5.67-6.75,10.11-6.75s8.41,2.65,10.11,6.75c.34.83-.05,1.78-.88,2.12-.2.08-.41.12-.62.12Z"/>
        <path class="cls-4" d="m98.65,70.49c-.64,0-1.24-.38-1.5-1-1.2-2.89-3.99-4.75-7.12-4.75s-5.92,1.87-7.12,4.75c-.34.83-1.29,1.22-2.12.88-.83-.34-1.22-1.29-.88-2.12,1.7-4.1,5.67-6.75,10.11-6.75s8.41,2.65,10.11,6.75c.34.83-.05,1.78-.88,2.12-.2.08-.41.12-.62.12Z"/>
        <path class="cls-4" d="m84.72,84.06c-.15.22-3.82,5.29-11.06,5.29s-10.9-5.08-11.06-5.29c-.52-.73-.34-1.74.39-2.26.73-.52,1.74-.34,2.26.39.03.04,2.84,3.92,8.41,3.92s8.38-3.88,8.41-3.92c.52-.73,1.53-.91,2.26-.39.73.52.9,1.53.39,2.26Z"/>
      </g>
      <ellipse class="cls-5" cx="97.97" cy="77.73" rx="5.75" ry="2.05"/>
      <ellipse class="cls-5" cx="49.35" cy="77.73" rx="5.75" ry="2.05"/>
    </g>
  </g>
</svg>